HIERARCHY
ROOT Hips
{
  OFFSET 5.84602e-005 68.8428 3.50346
  CHANNELS 6 Xposition Yposition Zposition Zrotation Xrotation Yrotation
  JOINT Spine
  {
    OFFSET 0 8.597 -4.6522
    CHANNELS 3 Zrotation Xrotation Yrotation
    JOINT Spine1
    {
      OFFSET 0 7.8454 0.4098
      CHANNELS 3 Zrotation Xrotation Yrotation
      JOINT Spine2
      {
        OFFSET 0 9.7078 -2.1609
        CHANNELS 3 Zrotation Xrotation Yrotation
        JOINT Neck
        {
          OFFSET 0 21.8761 -0.4549
          CHANNELS 3 Zrotation Xrotation Yrotation
          JOINT Head
          {
            OFFSET 0 12.3537 3.3602
            CHANNELS 3 Zrotation Xrotation Yrotation
            End Site
            {
              OFFSET 0.0001 18.9506 0.5657
            }
          }
        }
        JOINT LeftShoulder
        {
          OFFSET 2.2086 21.1115 7.2329
          CHANNELS 3 Zrotation Xrotation Yrotation
          JOINT LeftArm
          {
            OFFSET 13.1193 3.0282 -4.8998
            CHANNELS 3 Zrotation Xrotation Yrotation
            JOINT LeftForeArm
            {
              OFFSET 27.4081 -0.0973053 -0.2375
              CHANNELS 3 Zrotation Xrotation Yrotation
              JOINT LeftHand
              {
                OFFSET 22.8641 0.0662994 -0.1369
                CHANNELS 3 Zrotation Xrotation Yrotation
                JOINT LeftHandIndex1
                {
                  OFFSET 8.8614 0.775009 2.4612
                  CHANNELS 3 Zrotation Xrotation Yrotation
                  JOINT LeftHandIndex2
                  {
                    OFFSET 3.3146 -0.808304 0.5841
                    CHANNELS 3 Zrotation Xrotation Yrotation
                    JOINT LeftHandIndex3
                    {
                      OFFSET 2.2628 -0.552002 0.3989
                      CHANNELS 3 Zrotation Xrotation Yrotation
                      End Site
                      {
                        OFFSET 1.6102 -0.4807 0.2612
                      }
                    }
                  }
                }
                JOINT LeftHandMiddle1
                {
                  OFFSET 8.9937 0.895004 0.2143
                  CHANNELS 3 Zrotation Xrotation Yrotation
                  JOINT LeftHandMiddle2
                  {
                    OFFSET 4.0984 0.0113983 -0.0242
                    CHANNELS 3 Zrotation Xrotation Yrotation
                    JOINT LeftHandMiddle3
                    {
                      OFFSET 2.2716 0.00689697 -0.0138001
                      CHANNELS 3 Zrotation Xrotation Yrotation
                      End Site
                      {
                        OFFSET 2.0404 -0.1441 0.0027
                      }
                    }
                  }
                }
                JOINT LeftHandRing1
                {
                  OFFSET 8.5234 0.597198 -2.0164
                  CHANNELS 3 Zrotation Xrotation Yrotation
                  JOINT LeftHandRing2
                  {
                    OFFSET 3.7188 -0.188293 -0.2328
                    CHANNELS 3 Zrotation Xrotation Yrotation
                    JOINT LeftHandRing3
                    {
                      OFFSET 2.1191 -0.106598 -0.1332
                      CHANNELS 3 Zrotation Xrotation Yrotation
                      End Site
                      {
                        OFFSET 1.8737 -0.2304 -0.0886
                      }
                    }
                  }
                }
                JOINT LeftHandPinky1
                {
                  OFFSET 7.9094 -0.601089 -3.4825
                  CHANNELS 3 Zrotation Xrotation Yrotation
                  JOINT LeftHandPinky2
                  {
                    OFFSET 2.2874 -0.477005 -0.6314
                    CHANNELS 3 Zrotation Xrotation Yrotation
                    JOINT LeftHandPinky3
                    {
                      OFFSET 1.6774 -0.349396 -0.4633
                      CHANNELS 3 Zrotation Xrotation Yrotation
                      End Site
                      {
                        OFFSET 1.4888 -0.4091 -0.3416
                      }
                    }
                  }
                }
                JOINT LeftHandThumb1
                {
                  OFFSET 1.833 -1.3875 1.3896
                  CHANNELS 3 Zrotation Xrotation Yrotation
                  JOINT LeftHandThumb2
                  {
                    OFFSET 3.4129 -1.121 2.5732
                    CHANNELS 3 Zrotation Xrotation Yrotation
                    JOINT LeftHandThumb3
                    {
                      OFFSET 2.2474 -0.804199 1.6192
                      CHANNELS 3 Zrotation Xrotation Yrotation
                      End Site
                      {
                        OFFSET 1.6527 -0.5689 1.1317
                      }
                    }
                  }
                }
              }
            }
          }
        }
        JOINT RightShoulder
        {
          OFFSET -2.2086 21.1115 7.2329
          CHANNELS 3 Zrotation Xrotation Yrotation
          JOINT RightArm
          {
            OFFSET -13.1216 3.0287 -4.9007
            CHANNELS 3 Zrotation Xrotation Yrotation
            JOINT RightForeArm
            {
              OFFSET -27.4081 -0.0973053 -0.2375
              CHANNELS 3 Zrotation Xrotation Yrotation
              JOINT RightHand
              {
                OFFSET -22.8641 0.0664063 -0.1369
                CHANNELS 3 Zrotation Xrotation Yrotation
                JOINT RightHandIndex1
                {
                  OFFSET -8.8614 0.774994 2.4612
                  CHANNELS 3 Zrotation Xrotation Yrotation
                  JOINT RightHandIndex2
                  {
                    OFFSET -3.3146 -0.808304 0.5841
                    CHANNELS 3 Zrotation Xrotation Yrotation
                    JOINT RightHandIndex3
                    {
                      OFFSET -2.2628 -0.552002 0.3989
                      CHANNELS 3 Zrotation Xrotation Yrotation
                      End Site
                      {
                        OFFSET -1.6102 -0.4807 0.2612
                      }
                    }
                  }
                }
                JOINT RightHandMiddle1
                {
                  OFFSET -8.9937 0.894989 0.2143
                  CHANNELS 3 Zrotation Xrotation Yrotation
                  JOINT RightHandMiddle2
                  {
                    OFFSET -4.0984 0.0113983 -0.0242
                    CHANNELS 3 Zrotation Xrotation Yrotation
                    JOINT RightHandMiddle3
                    {
                      OFFSET -2.2716 0.00691223 -0.0138001
                      CHANNELS 3 Zrotation Xrotation Yrotation
                      End Site
                      {
                        OFFSET -2.0404 -0.1441 0.0027
                      }
                    }
                  }
                }
                JOINT RightHandRing1
                {
                  OFFSET -8.5234 0.597198 -2.0164
                  CHANNELS 3 Zrotation Xrotation Yrotation
                  JOINT RightHandRing2
                  {
                    OFFSET -3.7188 -0.188309 -0.2328
                    CHANNELS 3 Zrotation Xrotation Yrotation
                    JOINT RightHandRing3
                    {
                      OFFSET -2.1191 -0.106598 -0.1332
                      CHANNELS 3 Zrotation Xrotation Yrotation
                      End Site
                      {
                        OFFSET -1.8737 -0.2304 -0.0886
                      }
                    }
                  }
                }
                JOINT RightHandPinky1
                {
                  OFFSET -7.9094 -0.601105 -3.4825
                  CHANNELS 3 Zrotation Xrotation Yrotation
                  JOINT RightHandPinky2
                  {
                    OFFSET -2.2874 -0.477005 -0.6314
                    CHANNELS 3 Zrotation Xrotation Yrotation
                    JOINT RightHandPinky3
                    {
                      OFFSET -1.6774 -0.349396 -0.4633
                      CHANNELS 3 Zrotation Xrotation Yrotation
                      End Site
                      {
                        OFFSET -1.4888 -0.4091 -0.3416
                      }
                    }
                  }
                }
                JOINT RightHandThumb1
                {
                  OFFSET -1.833 -1.38751 1.3896
                  CHANNELS 3 Zrotation Xrotation Yrotation
                  JOINT RightHandThumb2
                  {
                    OFFSET -3.41299 -1.12099 2.5732
                    CHANNELS 3 Zrotation Xrotation Yrotation
                    JOINT RightHandThumb3
                    {
                      OFFSET -2.24741 -0.804108 1.6192
                      CHANNELS 3 Zrotation Xrotation Yrotation
                      End Site
                      {
                        OFFSET -1.6527 -0.5689 1.1317
                      }
                    }
                  }
                }
              }
            }
          }
        }
      }
    }
  }
  JOINT RightUpLeg
  {
    OFFSET -9.1966 3.8861 -0.7581
    CHANNELS 3 Zrotation Xrotation Yrotation
    JOINT RightLeg
    {
      OFFSET -0.7359 -41.0265 0
      CHANNELS 3 Zrotation Xrotation Yrotation
      JOINT RightFoot
      {
        OFFSET 0 -40.2855 0
        CHANNELS 3 Zrotation Xrotation Yrotation
        JOINT RightToeBase
        {
          OFFSET 0 -5.6122 11.7359
          CHANNELS 3 Zrotation Xrotation Yrotation
          End Site
          {
            OFFSET 0 0 7.8731
          }
        }
      }
    }
  }
  JOINT LeftUpLeg
  {
    OFFSET 9.1965 3.8864 -0.7581
    CHANNELS 3 Zrotation Xrotation Yrotation
    JOINT LeftLeg
    {
      OFFSET 0.7359 -41.0268 0
      CHANNELS 3 Zrotation Xrotation Yrotation
      JOINT LeftFoot
      {
        OFFSET 0 -40.2855 0
        CHANNELS 3 Zrotation Xrotation Yrotation
        JOINT LeftToeBase
        {
          OFFSET 0 -5.6122 11.7359
          CHANNELS 3 Zrotation Xrotation Yrotation
          End Site
          {
            OFFSET 0 0 7.8731
          }
        }
      }
    }
  }
}
MOTION
Frames:	6
Frame Time:	0.0333333
5.84602e-005 68.8428 3.50346 0 0 -0 0 0 -0 0 0 -0 0 0 -0 0 0 -0 0 0 -0 0 0 -0 0 0 -0 0 0 -0 0 0 -0 0 0 -0 0 0 -0 0 0 -0 0 0 -0 -0.0146107 -8.87603e-005 -2.63497e-007 2.99804e-018 -2.42657e-020 -1.42182e-022 0 0 -0 -0.0187562 -0.001176 5.858e-005 5.06224e-018 3.88251e-019 1.21329e-020 0 0 -0 -0.012269 -0.00324817 0.000675346 -1.74678e-018 3.88251e-019 -0 0 0 -0 0 0 -0 0 0 -0 0 0 -0 0 0 -0 0 0 -0 0 0 -0 0 0 -0 0 0 -0 0 0 -0 0 0 -0 0.0149955 -9.10982e-005 2.64101e-007 -9.69331e-018 1.21329e-020 -4.7394e-023 0 0 -0 0.0189956 -0.00119102 -5.96516e-005 -5.41541e-019 0 2.42657e-020 0 0 -0 0.0122698 -0.00324857 -0.000673756 -2.00796e-019 0 -1.94126e-019 0 0 -0 0 0 -0 0 0 -0 3.39842 1.33031 -0.0637918 -5.65207e-008 0.834868 -0.000436188 -3.39935 -2.16518 -0.0642563 -8.89002e-024 -1.18485e-023 -1.48106e-024 -3.39844 1.35642 0.0640283 -3.18788e-007 0.782166 -0.000588827 3.39931 -2.13858 0.0634662 1.1399e-023 0 -0 
5.37978e-005 22.2934 -8.46966 0 2.96278 -0 0 10.6612 -0 0 21.3224 -0 0 21.3224 -0 -0 -19.9737 -0 0.00833833 -8.86643 -0.0630199 -0 -7.40904 -0 25.0016 -27.4043 -58.1218 -2.26817e-007 -4.87504e-006 -8.15043 -3.11702e-007 -2.71612e-007 -1.04691e-007 -3.18055e-015 5.36719e-015 -7.95139e-016 -3.11702e-007 -2.71612e-007 -1.04691e-007 6.36111e-015 -2.38542e-015 -0 -3.18055e-015 5.36719e-015 -7.95139e-016 -0.0146507 -9.09172e-005 8.12984e-006 3.18055e-015 -1.25234e-014 7.95139e-016 -3.18055e-015 5.36719e-015 -7.95139e-016 -0.018684 -0.00117295 6.60416e-005 -8.82781e-032 1.59028e-015 3.18055e-015 -3.18055e-015 5.36719e-015 -7.95139e-016 -0.0123273 -0.00326503 0.000683325 3.18055e-015 3.97569e-016 7.95139e-016 -3.18055e-015 5.36719e-015 -7.95139e-016 -3.11702e-007 -2.71612e-007 -1.04691e-007 6.36111e-015 -2.38542e-015 -0 -0 -7.40904 -0 -25.005 -27.3923 58.1034 -1.49721e-006 -6.63164e-006 8.1478 -2.64491e-006 1.10773e-007 -5.9752e-007 7.74453e-007 1.51852e-006 -3.08728e-008 -1.87046e-006 1.62929e-006 -6.28393e-007 6.23486e-007 -5.43098e-007 2.09464e-007 7.74453e-007 1.51852e-006 -3.08728e-008 0.0149924 -8.88562e-005 4.33506e-007 6.23491e-007 -5.43071e-007 2.09535e-007 7.74453e-007 1.51852e-006 -3.08728e-008 0.0189963 -0.00118936 -6.0386e-005 6.23494e-007 -5.43063e-007 2.09548e-007 7.74453e-007 1.51852e-006 -3.08728e-008 0.0121972 -0.00322825 -0.000675157 6.23499e-007 -5.43073e-007 2.09504e-007 7.74453e-007 1.51852e-006 -3.08728e-008 -1.87046e-006 1.62929e-006 -6.28393e-007 6.23486e-007 -5.43098e-007 2.09464e-007 -22.3102 -41.0096 -3.10798 179.98 70.9041 176.125 -2.17479 43.4536 -1.72911 1.34978e-006 4.88228e-007 2.09722e-006 22.306 -41.0098 3.10345 -179.98 70.9043 -176.125 2.17482 43.4534 1.72916 -1.7525e-006 2.75683e-006 -2.94187e-006 
5.47852e-005 1.32634 -13.9088 0 4.29603 -0 -7.36042e-014 15.4819 -1.50423e-014 -5.83387e-021 30.9643 6.16653e-022 -6.31232e-021 30.9643 7.34694e-021 -8.50257e-019 -29.093 6.52475e-020 -0.0127898 -12.9719 0.223644 2.96344e-021 -10.7431 4.51728e-021 26.003 -17.2921 -81.4536 7.37695e-006 -1.99914e-006 -11.8181 -5.66485e-006 2.71054e-007 1.04945e-005 6.36111e-015 0 -0 -9.40729e-007 1.05105e-006 -1.74941e-006 -2.22639e-014 -6.36111e-015 4.77083e-015 6.36111e-015 0 -0 -0.0145792 -8.83627e-005 -5.40407e-008 -6.36111e-015 -3.18055e-015 -0 6.36111e-015 0 -0 -0.0187558 -0.00117274 5.57813e-005 1.27222e-014 6.36111e-015 3.18055e-015 6.36111e-015 0 -0 -0.0122715 -0.0032435 0.000677115 -1.59028e-014 3.18055e-015 -1.59028e-015 6.36111e-015 0 -0 -9.40729e-007 1.05105e-006 -1.74941e-006 -2.22639e-014 -6.36111e-015 4.77083e-015 2.96344e-021 -10.7431 4.51728e-021 -26.0089 -17.2936 81.4365 4.18861e-006 6.80029e-007 11.8143 0 0 -4.77083e-015 2.64834e-031 3.18055e-015 -4.77083e-015 1.59028e-014 -3.18055e-015 -4.77083e-015 0 0 -1.59028e-015 2.64834e-031 3.18055e-015 -4.77083e-015 0.0150131 -9.15862e-005 5.58919e-007 6.36111e-015 -9.54166e-015 3.18055e-015 2.64834e-031 3.18055e-015 -4.77083e-015 0.0189804 -0.00118968 -5.94946e-005 6.36111e-015 -9.54166e-015 -1.59028e-015 2.64834e-031 3.18055e-015 -4.77083e-015 0.0121996 -0.00323015 -0.000675541 0 0 -0 2.64834e-031 3.18055e-015 -4.77083e-015 1.59028e-014 -3.18055e-015 -4.77083e-015 0 0 -1.59028e-015 -31.9716 -60.5439 -11.4064 179.853 24.7518 169.194 9.87327 66.0778 -13.6768 4.98823e-008 1.37944e-007 4.00334e-007 31.9602 -60.5434 11.3959 -179.853 24.7521 -169.193 -9.87369 66.0768 13.6771 3.11045e-006 -8.32193e-007 -1.07525e-006 
5.38351e-005 5.98085 -12.6843 0 3.99975 -0 -1.11684e-014 14.4631 -8.21319e-016 -1.34216e-022 28.9259 -8.86979e-024 -1.20473e-022 28.9259 3.93272e-022 5.39077e-020 -27.3604 -1.59586e-020 -0.0601605 -12.3158 0.860405 7.49423e-022 -10.0022 2.10159e-022 25.3851 -21.0335 -77.1904 1.04616e-006 -1.11014e-007 -11.0031 6.36111e-015 -3.18055e-015 3.18055e-015 9.54166e-015 7.95139e-015 3.18055e-015 9.54166e-015 -1.59028e-015 -3.18055e-015 9.54166e-015 6.36111e-015 -0 9.54166e-015 7.95139e-015 3.18055e-015 -0.014629 -8.90505e-005 -8.26173e-008 6.36111e-015 1.11319e-014 3.18055e-015 9.54166e-015 7.95139e-015 3.18055e-015 -0.0187959 -0.00118154 6.59239e-005 3.26685e-006 4.08521e-007 -1.03486e-006 9.54166e-015 7.95139e-015 3.18055e-015 -0.0122125 -0.00323202 0.000671606 0 0 -3.18055e-015 9.54166e-015 7.95139e-015 3.18055e-015 9.54166e-015 -1.59028e-015 -3.18055e-015 9.54166e-015 6.36111e-015 -0 7.49423e-022 -10.0022 2.10159e-022 -25.3913 -21.0318 77.1718 -5.19654e-006 -4.26995e-006 10.9996 1.27222e-014 -4.77083e-015 3.18055e-015 2.22639e-014 -6.36111e-015 -0 6.36111e-015 -7.95139e-015 -3.18055e-015 3.18055e-015 3.18055e-015 3.18055e-015 2.22639e-014 -6.36111e-015 -0 0.0150104 -9.13388e-005 -1.75036e-006 3.18055e-015 0 3.18055e-015 2.22639e-014 -6.36111e-015 -0 0.018999 -0.00119208 -6.43351e-005 -3.18055e-015 7.95139e-015 6.36111e-015 2.22639e-014 -6.36111e-015 -0 0.0123328 -0.00326578 -0.00068295 -2.34343e-006 -8.47416e-007 1.68221e-006 2.22639e-014 -6.36111e-015 -0 6.36111e-015 -7.95139e-015 -3.18055e-015 3.18055e-015 3.18055e-015 3.18055e-015 -30.4107 -55.8397 -7.80098 179.892 34.7961 172.085 3.36831 60.854 -7.29649 -1.80131e-007 -2.52611e-007 -7.92851e-007 30.4018 -55.8396 7.79256 -179.892 34.7963 -172.085 -3.36857 60.8534 7.29673 6.93592e-006 -3.10584e-006 1.2252e-006 
5.38424e-005 5.98085 -12.6843 0 3.99975 -0 -1.38354e-014 14.5056 -1.01768e-015 -8.87232e-022 29.0112 -2.24338e-022 -5.76798e-022 29.0112 2.88483e-022 4.15994e-022 -27.6 1.77766e-023 -0.0976622 -12.5262 1.43514 1.07851e-021 -10.0022 5.10196e-022 25.4514 -21.3032 -77.0064 6.27524e-007 -7.53041e-007 -11.0031 -6.36111e-015 -3.18055e-015 -6.36111e-015 -6.36111e-015 -1.59028e-015 -3.18055e-015 -6.36111e-015 -1.59028e-015 3.18055e-015 -9.54166e-015 0 -3.18055e-015 -6.36111e-015 -1.59028e-015 -3.18055e-015 -0.0146347 -8.98949e-005 -4.06513e-006 9.54166e-015 3.18055e-015 -3.18055e-015 -6.36111e-015 -1.59028e-015 -3.18055e-015 -0.0187426 -0.00117421 4.89212e-005 -2.35074e-006 8.47337e-007 1.67574e-006 -6.36111e-015 -1.59028e-015 -3.18055e-015 -0.0122534 -0.00324732 0.000677181 2.35136e-006 -8.47654e-007 -1.67567e-006 -6.36111e-015 -1.59028e-015 -3.18055e-015 -6.36111e-015 -1.59028e-015 3.18055e-015 -9.54166e-015 0 -3.18055e-015 1.07851e-021 -10.0022 5.10196e-022 -25.4576 -21.3016 76.9881 -5.99146e-006 -1.11339e-006 10.9996 3.18055e-015 1.59028e-015 -0 -3.18055e-015 -3.18055e-015 -0 6.36111e-015 0 3.18055e-015 -2.64834e-031 1.59028e-015 9.54166e-015 -3.18055e-015 -3.18055e-015 -0 0.0150331 -9.00057e-005 1.87995e-006 6.36111e-015 -3.18055e-015 -3.18055e-015 -3.18055e-015 -3.18055e-015 -0 0.0189608 -0.0011869 -5.66068e-005 -6.36111e-015 -3.18055e-015 -3.18055e-015 -3.18055e-015 -3.18055e-015 -0 0.0123273 -0.00326386 -0.000682035 2.64834e-031 4.77083e-015 -3.18055e-015 -3.18055e-015 -3.18055e-015 -0 6.36111e-015 0 3.18055e-015 -2.64834e-031 1.59028e-015 9.54166e-015 -30.4107 -55.8396 -7.80097 179.892 34.7961 172.085 3.36831 60.854 -7.29648 1.80131e-007 2.52611e-007 7.92851e-007 30.4018 -55.8396 7.79256 -179.892 34.7963 -172.085 -3.36855 60.8533 7.29671 9.75408e-007 -5.39644e-007 2.76338e-007 
5.38424e-005 5.98085 -12.6843 0 3.99975 -0 1.94906e-014 14.5483 1.43397e-015 1.2563e-021 29.0966 3.5999e-022 -7.51724e-022 29.0965 -4.69681e-022 -1.75365e-020 -27.8399 -1.05485e-020 -0.133068 -12.7372 2.01075 8.54229e-022 -10.0022 4.14368e-022 25.5188 -21.5727 -76.8216 8.68398e-006 -6.49279e-006 -11.0031 0 1.59028e-015 -0 -3.18055e-015 1.59028e-015 3.18055e-015 1.07665e-006 2.52139e-007 1.81801e-006 -3.18055e-015 7.95139e-015 3.18055e-015 -3.18055e-015 1.59028e-015 3.18055e-015 -0.014616 -8.60878e-005 -1.28057e-006 3.18055e-015 -3.18055e-015 -3.18055e-015 -3.18055e-015 1.59028e-015 3.18055e-015 -0.0187293 -0.00117397 4.82565e-005 -9.54166e-015 1.59028e-014 3.18055e-015 -3.18055e-015 1.59028e-015 3.18055e-015 -0.0122164 -0.00323763 0.000671609 9.54166e-015 1.59028e-015 3.18055e-015 -3.18055e-015 1.59028e-015 3.18055e-015 1.07665e-006 2.52139e-007 1.81801e-006 -3.18055e-015 7.95139e-015 3.18055e-015 8.54229e-022 -10.0022 4.14368e-022 -25.525 -21.5712 76.8037 -7.87894e-006 -5.24849e-006 10.9995 2.74494e-006 1.02211e-008 -2.53498e-006 2.36016e-006 8.47292e-007 -1.66487e-006 1.50994e-007 1.00415e-006 1.16791e-006 3.18055e-015 4.77083e-015 -0 2.36016e-006 8.47292e-007 -1.66487e-006 0.0150334 -9.25688e-005 1.34114e-007 3.18055e-015 4.77083e-015 -3.18055e-015 2.36016e-006 8.47292e-007 -1.66487e-006 0.0189959 -0.00119089 -5.24481e-005 6.36111e-015 7.95139e-015 3.18055e-015 2.36016e-006 8.47292e-007 -1.66487e-006 0.0122416 -0.00324173 -0.000672688 9.54166e-015 1.11319e-014 -6.36111e-015 2.36016e-006 8.47292e-007 -1.66487e-006 1.50994e-007 1.00415e-006 1.16791e-006 3.18055e-015 4.77083e-015 -0 -30.4107 -55.8397 -7.80098 179.892 34.7961 172.085 3.36831 60.854 -7.29649 1.80131e-007 2.52611e-007 7.92851e-007 30.4018 -55.8396 7.79255 -179.892 34.7963 -172.085 -3.36855 60.8534 7.29673 4.19952e-006 -2.63283e-006 -1.56508e-007 
